<?xml version="1.0" encoding="utf-8"?>
<svg viewBox="0 0 500 500" xmlns="http://www.w3.org/2000/svg">
  <path fill="rgb(255,0,0)" stroke="rgb(255,0,0)" stroke-width="0" d="M 390.949 155.255 C 394.555 154.574 397.213 155.926 399.591 157.107 C 401.757 158.183 403.574 159.438 404.838 161.737 C 406.437 164.644 408.263 170.096 407.307 174.082 C 406.258 178.455 400.761 183.907 397.739 186.737 C 395.485 188.847 393.474 187.892 391.258 190.749 C 387.319 195.826 383.05 213.332 378.912 220.379 C 375.94 225.439 374.487 227.989 369.961 231.181 C 363.997 235.388 352.257 240.026 344.035 241.675 C 336.706 243.145 330.089 242.83 323.048 241.675 C 315.69 240.467 307.177 237.437 300.826 234.267 C 295.145 231.433 290.156 227.934 286.319 224.082 C 282.807 220.556 280.861 217.183 278.295 212.354 C 275.148 206.432 273.476 194.031 269.344 190.44 C 266.274 187.773 262.881 188.384 258.233 188.588 C 251.807 188.871 240.509 191.041 233.542 194.144 C 227.271 196.937 220.952 202.73 217.801 205.564 C 215.934 207.243 216.047 207.922 214.406 209.576 C 211.948 212.054 207.552 215.129 203.603 219.144 C 198.689 224.141 193.085 233.658 187.245 237.971 C 182.186 241.708 176.809 243.219 171.196 244.761 C 165.5 246.326 158.233 247.579 153.295 247.23 C 149.344 246.952 146.867 246.184 143.418 244.144 C 139.04 241.555 131.382 233.237 129.529 231.49 C 128.891 230.888 129.226 231.261 128.603 230.564 C 126.578 228.296 117.953 216.08 112.554 211.428 C 108.061 207.557 104.005 204.765 98.974 203.403 C 93.755 201.991 87.835 201.726 81.69 203.403 C 74.32 205.415 63.909 209.798 57.924 216.675 C 51.411 224.16 50.776 242.523 45.27 247.848 C 41.385 251.605 35.527 251.954 31.69 251.551 C 28.407 251.207 25.297 248.718 23.356 246.922 C 21.763 245.447 20.91 244.045 20.27 241.984 C 19.499 239.5 19.225 236.598 19.653 232.724 C 20.254 227.282 22.529 218.088 25.208 211.737 C 27.754 205.702 33.379 197.456 35.085 195.379 C 35.708 194.619 35.569 195.036 36.319 194.453 C 38.201 192.99 43.548 187.839 48.356 184.885 C 53.887 181.487 62.86 177.582 68.11 175.625 C 71.887 174.217 73.334 173.699 77.369 173.156 C 83.081 172.388 92.938 171.367 100.208 172.539 C 107.327 173.687 114.348 176.494 120.579 179.946 C 126.794 183.391 131.757 187.754 137.554 193.218 C 144.262 199.541 152.128 214.305 158.233 216.366 C 162.408 217.776 167.394 214.375 169.653 212.663 C 171.241 211.458 171.401 209.199 172.122 208.342 C 172.573 207.805 172.927 207.882 173.356 207.416 C 173.941 206.781 174.624 205.272 175.208 204.638 C 175.638 204.172 175.695 204.403 176.443 203.712 C 178.566 201.751 184.821 194.025 190.949 188.588 C 198.603 181.798 209.945 171.314 219.961 166.366 C 229.136 161.834 240.282 160.198 248.356 158.959 C 254.797 157.97 259.682 157.897 265.023 158.342 C 270.16 158.769 275.147 159.409 279.838 161.428 C 284.737 163.537 289.766 166.012 293.727 170.996 C 298.685 177.236 302.032 192.348 305.455 198.156 C 307.601 201.798 308.322 203.236 311.319 205.255 C 315.27 207.916 324.028 210.568 328.603 211.428 C 331.89 212.046 333.462 212.032 336.628 211.428 C 340.812 210.63 347.733 210.182 351.752 205.872 C 356.982 200.263 358.61 183.278 362.245 176.551 C 364.752 171.914 366.186 170.086 369.961 166.984 C 374.899 162.926 385.568 156.272 390.949 155.255 Z" style="fill: rgb(166, 209, 48); stroke: rgb(129, 151, 57); stroke-width: 2px;"/>
</svg>